<svg xmlns="http://www.w3.org/2000/svg" width="24" height="24"><rect id="backgroundrect" width="100%" height="100%" x="0" y="0" fill="none" stroke="none"/><g class="currentLayer" style=""><title>Layer 1</title><path d="M0 0h24v24H0z" fill="none" id="svg_1" class=""/><path d="M12 2C6.48 2 2 6.48 2 12s4.48 10 10 10 10-4.48 10-10S17.52 2 12 2zm5 11h-4v4h-2v-4H7v-2h4V7h2v4h4v2z" id="svg_2" class="" fill="#1a1aeb" fill-opacity="1"/><rect fill="#4141e8" stroke-dashoffset="" fill-rule="nonzero" id="svg_3" x="-127" y="-78" width="7" height="3" style="color: rgb(0, 0, 0);"/><rect fill="#4141e8" stroke-dashoffset="" fill-rule="nonzero" id="svg_5" x="-116" y="-80" width="5" height="1" style="color: rgb(0, 0, 0);"/><rect fill="#4141e8" stroke-dashoffset="" fill-rule="nonzero" id="svg_7" x="-111" y="-82" width="0" height="1" style="color: rgb(0, 0, 0);"/><rect fill="#147be2" stroke-dashoffset="" fill-rule="nonzero" id="svg_11" x="22" y="20" width="0" height="1" style="color: rgb(20, 123, 226);"/></g></svg>